<svg width="104" height="43" viewBox="0 0 104 43" fill="none" xmlns="http://www.w3.org/2000/svg">
<path d="M1.40506 37.1987C1.40506 36.4944 1.34813 35.8827 1.17733 35.7345C1.10141 35.6603 0.570026 35.5306 0.13353 35.5306L0.0576172 35.4564V35.2155L0.13353 35.1414C0.721851 35.1599 1.36711 35.2155 2.01236 35.2155C2.65762 35.2155 3.32185 35.1599 3.89119 35.1414L3.96711 35.2155V35.4564L3.89119 35.5306C3.43572 35.5306 2.92331 35.6603 2.8474 35.7345C2.65762 35.8827 2.61966 36.4944 2.61966 37.1987V40.331C2.61966 41.4802 2.69557 41.925 2.75251 42.0177C2.82842 42.0918 2.90433 42.1659 2.98024 42.2215C3.05616 42.2771 3.58754 42.3513 3.89119 42.3513L3.96711 42.4254V42.6664L3.89119 42.7405C3.30287 42.722 2.65762 42.6664 2.01236 42.6664C1.36711 42.6664 0.702873 42.722 0.13353 42.7405L0.0576172 42.6664V42.4254L0.13353 42.3513C0.456157 42.3513 0.987544 42.2771 1.04448 42.2215C1.12039 42.1659 1.21528 42.1103 1.27222 42.0177C1.34813 41.9435 1.40506 41.4802 1.40506 40.331V37.1987Z" fill="black"/>
<path d="M10.6847 36.7168C10.6847 35.9754 10.476 35.8086 10.3242 35.6974C10.1913 35.6232 9.69789 35.5306 9.52708 35.5306L9.45117 35.4564V35.2155L9.52708 35.1413C9.92562 35.1784 10.3621 35.2155 10.8176 35.2155C11.1402 35.2155 11.4439 35.1784 11.7665 35.1413C12.5256 36.1237 15.0877 38.9224 16.7388 40.7758V37.5323C16.7388 36.3831 16.6628 35.9383 16.6059 35.8456C16.53 35.7715 16.4541 35.6974 16.3782 35.6418C16.3023 35.5862 15.7709 35.512 15.5811 35.512L15.5052 35.4379V35.1969L15.5811 35.1228C15.9796 35.1599 16.492 35.1969 17.0045 35.1969C17.6118 35.1969 18.1052 35.1599 18.5037 35.1228L18.5796 35.1969V35.4379L18.5037 35.512C18.295 35.512 17.7636 35.5862 17.7066 35.6418C17.6307 35.6974 17.5358 35.753 17.4789 35.8456C17.403 35.9198 17.3461 36.3831 17.3461 37.5323V41.6469C17.3461 42.0176 17.365 42.5366 17.403 42.7034H16.7767C15.8278 41.5172 13.2088 38.6258 11.311 36.587V40.331C11.311 41.4801 11.3869 41.925 11.4439 42.0176C11.5198 42.0918 11.5957 42.1659 11.6716 42.2215C11.7475 42.2771 12.2789 42.3513 12.4687 42.3513L12.5446 42.4254V42.6663L12.4687 42.7405C12.0701 42.7034 11.5577 42.6663 11.0453 42.6663C10.438 42.6663 9.9446 42.7034 9.54606 42.7405L9.47015 42.6663V42.4254L9.54606 42.3513C9.75482 42.3513 10.2862 42.2771 10.3431 42.2215C10.4191 42.1659 10.5139 42.1103 10.5709 42.0176C10.6468 41.9435 10.7037 41.4801 10.7037 40.331V36.7168H10.6847Z" fill="black"/>
<path d="M26.7967 36.6427C26.7967 36.3832 26.7778 36.031 26.7588 35.7901C26.55 35.7901 26.3982 35.7715 26.2274 35.7715C25.7719 35.7715 24.9369 35.8457 24.823 35.9013C24.7281 35.9754 24.6143 36.4758 24.5573 36.8465L24.4814 36.9207H24.2157L24.1398 36.8465C24.1398 36.7539 24.1588 36.587 24.1588 36.4202C24.1588 35.9939 24.1208 35.4379 24.0449 35.2711L24.1588 35.1414C24.5004 35.1784 26.0566 35.2155 27.3851 35.2155C28.7135 35.2155 30.2508 35.1784 30.6113 35.1414L30.7252 35.2711C30.6493 35.4379 30.6113 35.9939 30.6113 36.4202C30.6113 36.587 30.6303 36.7539 30.6303 36.8465L30.5544 36.9207H30.2887L30.2128 36.8465C30.1559 36.4758 30.042 35.9569 29.9471 35.9013C29.8332 35.8271 28.9982 35.7715 28.5427 35.7715C28.3719 35.7715 28.2011 35.7901 28.0113 35.7901C27.9924 36.0125 27.9734 36.3832 27.9734 36.6427V40.331C27.9734 41.4802 28.0493 41.925 28.1062 42.0177C28.1822 42.0918 28.2581 42.1659 28.334 42.2215C28.4099 42.2771 28.9413 42.3513 29.2449 42.3513L29.3208 42.4254V42.6664L29.2449 42.7405C28.6566 42.722 28.0113 42.6664 27.3661 42.6664C26.7208 42.6664 26.0566 42.722 25.4873 42.7405L25.4113 42.6664V42.4254L25.4873 42.3513C25.8099 42.3513 26.3413 42.2771 26.3982 42.2215C26.4741 42.1659 26.569 42.1103 26.6259 42.0177C26.7019 41.9435 26.7588 41.4802 26.7588 40.331V36.6427H26.7967Z" fill="black"/>
<path d="M37.3872 37.4026C37.3872 36.6797 37.3682 36.0681 37.3303 35.9754C37.2733 35.8827 37.1784 35.7345 37.0835 35.6789C37.0076 35.6233 36.4573 35.5306 36.1726 35.5306L36.0967 35.4564V35.2155L36.1726 35.1414C36.3624 35.1599 36.704 35.1784 37.1974 35.197C37.6908 35.2155 38.2602 35.2155 38.8865 35.2155C39.3989 35.2155 40.8032 35.1599 41.923 35.1414L42.0938 35.2155C41.9989 35.7715 41.904 36.3646 41.904 36.6797L41.8281 36.7724H41.6003L41.5244 36.7168C41.5054 36.5129 41.4295 36.1422 41.3157 35.9569C40.8222 35.8086 40.2149 35.7159 39.5507 35.7159C39.1901 35.7159 38.9434 35.7345 38.6967 35.7715C38.6397 36.2349 38.6208 36.5129 38.6208 37.4582V38.3478C38.8485 38.4034 39.5127 38.422 39.9492 38.422C40.3857 38.422 41.0879 38.3478 41.4865 38.2366L41.5814 38.3478V38.9224L41.4865 39.0151C41.05 38.9409 40.2149 38.9224 39.3799 38.9224C38.7346 38.9224 38.6208 38.9409 38.6208 39.0892V40.1457C38.6208 40.85 38.6777 41.5728 38.7536 41.9991C39.1711 42.0733 39.5317 42.1103 40.0631 42.1103C40.7653 42.1103 41.1259 42.0362 41.5434 41.925L41.9609 40.9427L42.0558 40.8685H42.3215L42.3784 40.9427C42.3025 41.1465 42.2076 42.1845 42.1887 42.5552L42.0938 42.6664C41.1069 42.6108 39.7595 42.5922 39.0383 42.5922C38.0135 42.5922 37.3303 42.6108 36.647 42.6664L36.5711 42.5922V42.3513L36.647 42.2771C36.8558 42.2401 37.1974 42.1289 37.2733 42.0362C37.3492 41.9621 37.4062 41.0168 37.4062 39.4228V37.4026H37.3872Z" fill="black"/>
<path d="M49.628 37.1987C49.628 36.4944 49.5711 35.8827 49.4003 35.7345C49.3244 35.6603 48.793 35.5306 48.3565 35.5306L48.2806 35.4564V35.2155L48.3565 35.1414C48.9448 35.1599 49.5901 35.2155 50.2353 35.2155C50.7857 35.2155 51.9813 35.1414 52.5696 35.1414C53.955 35.1414 54.7711 35.8827 54.7711 36.828C54.7711 37.625 54.2397 38.2181 53.5375 38.5702L52.7025 38.8112L54.809 41.647C55.2076 42.1845 55.3973 42.3142 55.8528 42.3142L55.9287 42.3883V42.6293L55.8528 42.7034C55.5492 42.6849 55.2265 42.6293 54.8849 42.6293C54.5623 42.6293 54.2587 42.6849 53.9171 42.7034C53.7083 42.1474 52.1711 39.9233 51.0703 38.8112L51.1652 38.5888C51.336 38.6073 51.5068 38.6258 51.6587 38.6258C52.7404 38.6258 53.4236 37.9957 53.4236 36.9763C53.4236 36.1237 52.7784 35.6789 51.8864 35.6789C51.5258 35.6789 51.1273 35.753 50.8616 35.7901C50.8236 36.1052 50.7857 36.7353 50.7857 37.662V40.331C50.7857 41.4802 50.8616 41.925 50.9185 42.0177C50.9944 42.0918 51.0703 42.1659 51.1463 42.2215C51.2222 42.2771 51.7536 42.3513 52.0572 42.3513L52.1331 42.4254V42.6664L52.0572 42.7405C51.4689 42.722 50.8236 42.6664 50.1784 42.6664C49.5331 42.6664 48.8689 42.722 48.2995 42.7405L48.2236 42.6664V42.4254L48.2995 42.3513C48.6222 42.3513 49.1536 42.2771 49.2105 42.2215C49.2864 42.1659 49.3813 42.1103 49.4382 42.0177C49.5141 41.9435 49.5711 41.4802 49.5711 40.331V37.1987H49.628Z" fill="black"/>
<path d="M62.3045 37.1987C62.3045 36.4944 62.2476 35.8827 62.0767 35.7345C62.0008 35.6603 61.4694 35.5306 61.0329 35.5306L60.957 35.4564V35.2155L61.0329 35.1414C61.6213 35.1599 62.2665 35.2155 62.9118 35.2155C63.5571 35.2155 64.2213 35.1599 64.7906 35.1414L64.8666 35.2155V35.4564L64.7906 35.5306C64.3352 35.5306 63.8227 35.6603 63.7468 35.7345C63.5571 35.8827 63.5191 36.4944 63.5191 37.1987V40.331C63.5191 41.4802 63.595 41.925 63.6519 42.0177C63.7279 42.0918 63.8038 42.1659 63.8797 42.2215C63.9556 42.2771 64.487 42.3513 64.7906 42.3513L64.8666 42.4254V42.6664L64.7906 42.7405C64.2023 42.722 63.5571 42.6664 62.9118 42.6664C62.2665 42.6664 61.6023 42.722 61.0329 42.7405L60.957 42.6664V42.4254L61.0329 42.3513C61.3556 42.3513 61.887 42.2771 61.9439 42.2215C62.0198 42.1659 62.1147 42.1103 62.1716 42.0177C62.2476 41.9435 62.3045 41.4802 62.3045 40.331V37.1987Z" fill="black"/>
<path d="M74.9069 35.0302C77.7157 35.0302 79.158 36.4388 79.158 38.7741C79.158 41.2021 77.3551 42.8517 74.9069 42.8517C72.3259 42.8517 70.6748 41.3875 70.6748 38.9595C70.6748 36.4017 72.3639 35.0302 74.9069 35.0302ZM74.9069 35.475C72.8763 35.475 72.0412 36.6612 72.0412 38.7C72.0412 41.128 73.1799 42.4069 74.9069 42.4069C76.9566 42.4069 77.7916 40.8129 77.7916 39.0707C77.7916 37.106 77.0135 35.475 74.9069 35.475Z" fill="black"/>
<path d="M86.5587 37.1987C86.5587 36.4944 86.5017 35.8827 86.3309 35.7345C86.255 35.6603 85.7236 35.5306 85.2871 35.5306L85.2112 35.4564V35.2155L85.2871 35.1414C85.8755 35.1599 86.5207 35.2155 87.166 35.2155C87.7163 35.2155 88.912 35.1414 89.5003 35.1414C90.8857 35.1414 91.7017 35.8827 91.7017 36.828C91.7017 37.625 91.1704 38.2181 90.4682 38.5702L89.6331 38.8112L91.7397 41.647C92.1382 42.1845 92.328 42.3142 92.7835 42.3142L92.8594 42.3883V42.6293L92.7835 42.7034C92.4798 42.6849 92.1572 42.6293 91.8156 42.6293C91.493 42.6293 91.1893 42.6849 90.8477 42.7034C90.639 42.1474 89.1017 39.9233 88.001 38.8112L88.0959 38.5888C88.2667 38.6073 88.4375 38.6258 88.5893 38.6258C89.6711 38.6258 90.3543 37.9957 90.3543 36.9763C90.3543 36.1237 89.709 35.6789 88.8171 35.6789C88.4565 35.6789 88.0579 35.753 87.7923 35.7901C87.7543 36.1052 87.7163 36.7353 87.7163 37.662V40.331C87.7163 41.4802 87.7922 41.925 87.8492 42.0177C87.9251 42.0918 88.001 42.1659 88.0769 42.2215C88.1528 42.2771 88.6842 42.3513 88.9879 42.3513L89.0638 42.4254V42.6664L88.9879 42.7405C88.3995 42.722 87.7543 42.6664 87.109 42.6664C86.4638 42.6664 85.7996 42.722 85.2302 42.7405L85.1543 42.6664V42.4254L85.2302 42.3513C85.5528 42.3513 86.0842 42.2771 86.1412 42.2215C86.2171 42.1659 86.312 42.1103 86.3689 42.0177C86.4448 41.9435 86.5017 41.4802 86.5017 40.331V37.1987H86.5587Z" fill="black"/>
<path d="M103.013 36.9577L102.937 36.8836C102.937 36.6426 102.899 36.1978 102.842 35.9939C102.406 35.7159 102.007 35.5306 101.286 35.5306C99.9008 35.5306 99.2746 36.272 99.2746 37.0133C99.2746 38.0513 100.053 38.2922 101.04 38.2922C102.558 38.2922 103.943 38.3293 103.943 40.3866C103.943 41.7952 102.387 42.8517 100.698 42.8517C99.787 42.8517 99.2176 42.759 98.4016 42.3513L98.3446 42.2771C98.4585 41.8138 98.5534 41.2577 98.5913 40.7944L98.6673 40.7202H98.895L98.9709 40.7944C98.9899 40.9982 99.0089 41.5357 99.0848 41.7582C99.4454 42.0176 99.9768 42.3698 100.831 42.3698C101.875 42.3698 102.842 41.8138 102.842 40.8129C102.842 39.4599 102.045 39.3672 100.508 39.3672C99.1227 39.3672 98.1738 38.8668 98.1738 37.4767C98.1738 36.1793 99.3505 35.0858 101.4 35.0858C102.235 35.0858 102.767 35.1784 103.564 35.512L103.621 35.6047C103.469 36.031 103.374 36.5129 103.336 36.9392L103.26 37.0133H103.013V36.9577Z" fill="black"/>
<path d="M3.01735 4.61508C3.01735 3.37327 2.9794 2.52069 2.92246 2.11293C2.84655 1.74224 2.33414 1.40862 2.23925 1.37155C1.7648 1.20474 0.66407 1.20474 0.227573 1.16767L0.0947266 1.03793V0.407756L0.227573 0.278015C1.66991 0.315084 3.13122 0.407756 4.57356 0.407756C6.37648 0.407756 8.57794 0.278015 10.3049 0.278015C11.3677 0.278015 16.8334 0.278015 16.8334 4.81896C16.8334 7.89569 14.5371 9.7862 11.6144 10.5832V10.6573C14.9356 10.6573 17.8013 12.659 17.8013 15.9953C17.8013 20.9625 13.2655 23.0384 8.91954 23.0384C7.76188 23.0384 6.60422 22.9086 4.57356 22.9086C3.28305 22.9086 2.18232 22.9827 1.40422 23.0384L1.27137 22.9086V22.2784L1.40422 22.1487C3.03633 21.9077 3.03633 21.7409 3.03633 18.7198V4.61508H3.01735ZM8.14144 1.44569C7.11662 1.44569 6.64217 1.53836 5.95896 1.68664C5.78816 2.6875 5.78816 7.45086 5.78816 10.3237C6.22465 10.3608 6.81297 10.3978 7.42027 10.3978C8.7867 10.3978 13.8349 10.3978 13.8349 5.52327C13.8539 1.44569 9.79254 1.44569 8.14144 1.44569ZM7.62903 11.4172C6.94582 11.4172 6.30057 11.4543 5.78816 11.584C5.78816 13.2521 5.78816 19.9987 6.03487 21.3332C6.54728 21.5927 7.05969 21.8707 8.33122 21.8707C14.575 21.8707 14.575 17.6077 14.575 16.1621C14.575 11.4172 10.5706 11.4172 7.62903 11.4172Z" fill="black"/>
<path d="M52.3416 23.0198C50.5576 17.8858 47.0087 9.10042 44.8642 4.13319C43.7065 1.53836 43.5737 1.22327 41.4102 1.16767L41.2773 1.03793V0.407756L41.4102 0.278015C42.9095 0.352153 44.4467 0.407756 45.9839 0.407756C47.3503 0.407756 48.7168 0.333619 50.0073 0.278015L50.1401 0.407756V1.075L50.0073 1.16767C47.7868 1.24181 47.5401 1.37155 47.5401 2.16853C47.5401 3.26207 52.873 16.2547 53.8219 18.7754H53.8978C55.1883 15.7358 60.0846 3.96638 60.0846 2.13146C60.0846 1.37155 59.3635 1.20474 57.6554 1.16767L57.5226 1.075V0.407756L57.6554 0.278015C58.8131 0.352153 59.9518 0.407756 61.1095 0.407756C62.0963 0.407756 63.0832 0.333619 64.0131 0.278015L64.146 0.407756V1.075L64.0131 1.16767C62.8934 1.24181 62.7416 1.29741 61.3752 4.33706C58.6803 10.2681 56.1752 17.0146 53.7649 23.0198H52.3416Z" fill="black"/>
<path d="M89.3106 17.6634L89.4434 17.7931L89.6522 19.8875C89.6902 20.1285 91.0186 22.1302 94.5675 22.1302C97.8128 22.1302 99.9383 20.2582 99.9383 16.8664C99.9383 10.4535 87.4697 14.3272 87.4697 6.39442C87.4697 2.02028 91.7398 0.0185547 96.0858 0.0185547C97.7179 0.0185547 99.6726 0.222434 101.286 1.09355C101.039 2.33537 100.735 3.89226 100.735 5.18968H99.9573L99.8244 5.05994C99.7485 4.05907 99.7296 3.79959 99.5208 2.68752C98.458 1.94614 97.3953 1.18623 94.8712 1.18623C91.7208 1.18623 90.2595 3.09528 90.2595 5.31942C90.2595 12.4923 102.728 8.11813 102.728 15.6246C102.728 20.8884 98.4201 23.2979 93.4288 23.2979C92.8215 23.2979 89.9179 23.2979 88.096 22.0005C88.4376 20.9069 88.4756 19.7393 88.6464 17.6634H89.3106Z" fill="black"/>
</svg>
