<svg width="24" height="24" viewBox="0 0 24 24" xmlns="http://www.w3.org/2000/svg">
<path d="M12.3676 23.9938C12.4252 23.9921 12.4826 23.9898 12.54 23.9873C12.5989 23.9846 12.6577 23.9815 12.7164 23.978C12.7419 23.9765 12.7673 23.9748 12.7928 23.9732C12.8947 23.9665 12.9962 23.9586 13.0974 23.9495C13.106 23.9487 13.1146 23.948 13.1232 23.9472C14.9175 23.7806 16.597 23.2191 18.0743 22.3501C18.0872 22.3426 18.1002 22.3349 18.1131 22.3272C18.1941 22.2792 18.2744 22.2302 18.3541 22.1804C18.372 22.1693 18.3899 22.1582 18.4077 22.1469C18.4489 22.1209 18.4898 22.0946 18.5306 22.0681C18.5595 22.0493 18.5883 22.0302 18.6171 22.0112C18.6737 21.9736 18.7301 21.9357 18.786 21.8972C18.8196 21.8742 18.853 21.8511 18.8863 21.8278C18.9191 21.8048 18.9519 21.7817 18.9844 21.7583C19.0393 21.719 19.0939 21.6793 19.1481 21.639C19.1774 21.6172 19.2065 21.5951 19.2356 21.5731C19.2739 21.5441 19.3119 21.5149 19.3498 21.4855C19.3817 21.4608 19.4136 21.436 19.4452 21.411C19.4944 21.3721 19.5433 21.3326 19.5918 21.2929C19.6207 21.2693 19.6494 21.2455 19.678 21.2216C19.7173 21.1889 19.7563 21.1558 19.7952 21.1226C19.8362 21.0875 19.8769 21.0521 19.9175 21.0165C19.9493 20.9884 19.9811 20.9604 20.0127 20.9319C20.0444 20.9035 20.076 20.875 20.1074 20.8463C20.1404 20.816 20.173 20.7854 20.2057 20.7547C20.2546 20.7088 20.3031 20.6626 20.3512 20.616C20.3691 20.5987 20.3869 20.5813 20.4046 20.5639C22.6232 18.3864 24 15.3542 24 12C24 5.37271 18.6273 0 12 0C5.37272 0 0 5.37271 0 12C0 15.3641 1.38506 18.4044 3.61528 20.5833C3.6203 20.5882 3.62527 20.5931 3.63028 20.598C3.75098 20.7155 3.87408 20.8305 3.99961 20.9429C4.01967 20.9609 4.03988 20.9787 4.06008 20.9966C4.11717 21.047 4.17469 21.0968 4.23272 21.1462C4.25958 21.169 4.28644 21.1919 4.31348 21.2145C4.34733 21.2428 4.38127 21.2708 4.41539 21.2987C4.45069 21.3276 4.48622 21.356 4.5218 21.3844C4.56802 21.4213 4.61447 21.4578 4.6612 21.494C4.69303 21.5187 4.72495 21.5432 4.75706 21.5675C4.78992 21.5924 4.82273 21.6173 4.85588 21.642C4.90781 21.6805 4.96008 21.7186 5.01262 21.7563C5.0475 21.7813 5.08266 21.806 5.11781 21.8307C5.148 21.8519 5.17833 21.8728 5.20875 21.8937C5.26819 21.9346 5.328 21.9749 5.38819 22.0147C5.41495 22.0324 5.44167 22.0501 5.46858 22.0676C5.50973 22.0944 5.55108 22.1209 5.59261 22.1472C5.61047 22.1585 5.62852 22.1696 5.64642 22.1808C5.72517 22.2301 5.80453 22.2785 5.8845 22.3259C5.89898 22.3345 5.91347 22.3431 5.92795 22.3516C7.40344 23.219 9.08044 23.7798 10.872 23.9468C10.8864 23.9482 10.9008 23.9494 10.9152 23.9507C11.01 23.9592 11.1051 23.9666 11.2005 23.9729C11.2294 23.9748 11.2582 23.9767 11.2871 23.9783C11.3373 23.9813 11.3876 23.9842 11.4381 23.9865C11.503 23.9895 11.5681 23.9919 11.6332 23.9939C11.6791 23.9953 11.725 23.9963 11.771 23.9971C11.8138 23.9979 11.8567 23.9984 11.8996 23.9987C11.9331 23.999 11.9664 24 12 24C12.0338 24 12.0675 23.999 12.1012 23.9987C12.1434 23.9984 12.1855 23.9979 12.2276 23.9971C12.2744 23.9962 12.321 23.9952 12.3676 23.9938ZM18.6353 19.4806C18.5776 19.5318 18.5194 19.5823 18.4606 19.6322C18.4463 19.6443 18.432 19.6564 18.4176 19.6685C18.3578 19.7186 18.2974 19.768 18.2364 19.8167C18.2257 19.8252 18.2151 19.834 18.2043 19.8425C18.0587 19.9578 17.9101 20.069 17.7586 20.1759C17.7479 20.1834 17.737 20.1908 17.7262 20.1984C17.6622 20.2432 17.5976 20.2873 17.5326 20.3306C17.5164 20.3413 17.5002 20.3519 17.484 20.3626C17.4212 20.4038 17.358 20.4443 17.2944 20.4841C17.2803 20.4929 17.2662 20.5018 17.252 20.5106C17.1783 20.5561 17.104 20.6009 17.0291 20.6446C17.0263 20.6462 17.0235 20.6479 17.0206 20.6496C15.7769 21.3725 14.3754 21.827 12.9005 21.9592C12.8966 21.9595 12.8927 21.9599 12.8888 21.9602C12.7952 21.9685 12.7013 21.9754 12.6072 21.9811C12.6025 21.9813 12.5978 21.9817 12.5931 21.9819C12.3964 21.9935 12.1986 21.9994 11.9998 21.9994C11.8017 21.9994 11.6046 21.9935 11.4086 21.982C11.402 21.9817 11.3955 21.9812 11.3889 21.9808C11.2971 21.9752 11.2056 21.9684 11.1144 21.9604C11.1082 21.9599 11.102 21.9593 11.0957 21.9588C9.62255 21.8262 8.22295 21.3722 6.98058 20.6502C6.9765 20.6478 6.97247 20.6454 6.96839 20.643C6.89456 20.5999 6.8213 20.5558 6.74859 20.5108C6.73425 20.502 6.72 20.493 6.7057 20.4841C6.64172 20.4441 6.5782 20.4033 6.51511 20.3619C6.49964 20.3517 6.48417 20.3416 6.4688 20.3313C6.40177 20.2868 6.3353 20.2414 6.26939 20.1952C6.26072 20.1891 6.252 20.1832 6.24337 20.1771C6.09005 20.069 5.93962 19.9565 5.79244 19.8397C5.78639 19.8349 5.78048 19.83 5.77448 19.8252C5.70797 19.7722 5.64206 19.7183 5.57686 19.6635C5.56711 19.6553 5.55741 19.6471 5.5477 19.6389C5.48278 19.5839 5.41842 19.5282 5.35486 19.4716C5.34975 19.467 5.34459 19.4625 5.33953 19.4579C4.83797 19.0092 4.37902 18.5079 3.97134 17.9592C4.31775 16.2383 5.84677 14.9994 7.70991 14.9994H8.58548L11.2931 17.707C11.6836 18.0975 12.3168 18.0975 12.7073 17.707L15.4149 14.9994H16.2909C18.154 14.9994 19.683 16.2383 20.0295 17.9592C19.6236 18.5055 19.1668 19.0047 18.6677 19.4518C18.6569 19.4615 18.6461 19.471 18.6353 19.4806ZM16.0015 4.7031C15.3271 5.19426 14.2568 5.18849 12.5148 4.13976C11.3017 3.40935 10.2043 3.04968 9.23869 3.00088C9.98887 2.37431 10.9552 1.99795 12.0093 2.00048C12.1835 2.00128 12.342 2.01051 12.5002 2.02823C14.0785 2.20429 15.4218 3.27102 16.0015 4.7031ZM7.76587 5.50129C7.79648 5.46486 7.86891 5.39108 7.98352 5.30816C8.67267 4.8096 9.7507 4.81007 11.4832 5.85322C13.4188 7.01849 15.0535 7.24949 16.3251 6.77825C16.2787 8.97776 15.2953 11.2226 13.9991 11.7094C13.4065 11.9327 12.9997 12.4899 12.9997 13.1345V13.3785C12.9997 13.7048 13.1024 14.0305 13.2823 14.3035L12 15.5858L10.7176 14.3034C10.8973 14.0304 10.9997 13.7047 10.9997 13.3785V13.1375C10.9997 12.5135 10.6203 11.9399 10.0242 11.7182C8.72564 11.2379 7.68966 8.70355 7.68966 6.31053C7.6897 6.03383 7.71605 5.76341 7.76587 5.50129ZM22 12C22 13.3227 21.7426 14.5851 21.2761 15.7407C20.2589 14.078 18.4049 12.9995 16.2907 12.9995H15.7305C17.6113 11.5383 18.6002 8.34294 18.2636 5.53452C18.1937 4.95191 18.0422 4.39269 17.8212 3.86863C20.3513 5.68316 22 8.64898 22 12ZM6.18052 3.86732C5.86439 4.61877 5.68969 5.44415 5.68969 6.31049C5.68969 8.93909 6.63647 11.6813 8.29111 12.9995H7.70967C5.59533 12.9995 3.74123 14.0782 2.72405 15.7411C2.25745 14.5854 1.99997 13.3228 1.99997 12C2.00002 8.64819 3.64941 5.6818 6.18052 3.86732Z" />
</svg>
