<svg width="24" height="24" viewBox="0 0 24 24" xmlns="http://www.w3.org/2000/svg">
<path fill-rule="evenodd" clip-rule="evenodd" d="M23.939 7.05609C23.8828 5.78087 23.6765 4.90417 23.381 4.1445C23.0762 3.33813 22.6073 2.61618 21.9929 2.01603C21.3927 1.40653 20.6658 0.932926 19.8686 0.632938C19.1044 0.337532 18.2321 0.131313 16.9567 0.0750885C15.6717 0.0141029 15.2638 0 12.0047 0C8.74559 0 8.33766 0.0141029 7.05743 0.0703278C5.78197 0.126553 4.90511 0.332951 4.14547 0.628178C3.33876 0.932926 2.61668 1.40177 2.01641 2.01603C1.4068 2.61618 0.933285 3.34289 0.63306 4.13992C0.337593 4.90417 0.131336 5.77611 0.0751038 7.05132C0.0141029 8.33607 0 8.74392 0 12.0024C0 15.2608 0.0141029 15.6687 0.0703392 16.9487C0.126575 18.2239 0.333015 19.1006 0.628479 19.8603C0.933285 20.6666 1.4068 21.3886 2.01641 21.9887C2.61668 22.5982 3.34352 23.0718 4.14071 23.3718C4.90511 23.6672 5.77721 23.8734 7.05285 23.9297C8.33289 23.9861 8.74101 24 12.0001 24C15.2592 24 15.6671 23.9861 16.9473 23.9297C18.2228 23.8734 19.0997 23.6672 19.8593 23.3718C21.4725 22.7482 22.748 21.473 23.3717 19.8603C23.667 19.096 23.8734 18.2239 23.9297 16.9487C23.9859 15.6687 24 15.2608 24 12.0024C24 8.74392 23.9952 8.33607 23.939 7.05609ZM21.7773 16.8549C21.7257 18.027 21.5288 18.66 21.3646 19.0819C20.9613 20.1275 20.1313 20.9573 19.0856 21.3606C18.6635 21.5247 18.0259 21.7215 16.8581 21.773C15.592 21.8294 15.2123 21.8433 12.0094 21.8433C8.80659 21.8433 8.4221 21.8294 7.16056 21.773C5.98823 21.7215 5.35517 21.5247 4.93313 21.3606C4.41273 21.1683 3.93903 20.8635 3.55454 20.465C3.15595 20.0758 2.85115 19.607 2.65881 19.0867C2.49468 18.6647 2.29777 18.027 2.2463 16.8597C2.18988 15.5938 2.17596 15.214 2.17596 12.0117C2.17596 8.80949 2.18988 8.42507 2.2463 7.16396C2.29777 5.99185 2.49468 5.35891 2.65881 4.93695C2.85115 4.41646 3.15595 3.94304 3.55931 3.55844C3.94838 3.15993 4.41731 2.85518 4.93789 2.66306C5.35994 2.49897 5.99776 2.30209 7.16533 2.25045C8.43144 2.19422 8.81135 2.18012 12.014 2.18012C15.2216 2.18012 15.6013 2.19422 16.8629 2.25045C18.0352 2.30209 18.6683 2.49897 19.0903 2.66306C19.6107 2.85518 20.0844 3.15993 20.4689 3.55844C20.8675 3.94762 21.1723 4.41646 21.3646 4.93695C21.5288 5.35891 21.7257 5.99643 21.7773 7.16396C21.8336 8.42983 21.8477 8.80949 21.8477 12.0117C21.8477 15.214 21.8336 15.589 21.7773 16.8549ZM12.0039 5.83701C8.59953 5.83701 5.8374 8.59842 5.8374 12.0023C5.8374 15.4062 8.59953 18.1676 12.0039 18.1676C15.4084 18.1676 18.1703 15.4062 18.1703 12.0023C18.1703 8.59842 15.4084 5.83701 12.0039 5.83701ZM12.0039 16.0016C9.79531 16.0016 8.00384 14.2106 8.00384 12.0023C8.00384 9.79397 9.79531 8.00302 12.0039 8.00302C14.2126 8.00302 16.0039 9.79397 16.0039 12.0023C16.0039 14.2106 14.2126 16.0016 12.0039 16.0016ZM18.4147 7.03254C19.2099 7.03254 19.8545 6.38807 19.8545 5.59323C19.8545 4.79821 19.2099 4.15392 18.4147 4.15392C17.6197 4.15392 16.9751 4.79821 16.9751 5.59323C16.9751 6.38807 17.6197 7.03254 18.4147 7.03254Z"/>
</svg>
