<svg width="24" height="14" viewBox="0 0 24 14" fill="none" xmlns="http://www.w3.org/2000/svg">
<path d="M23.7301 5.31672C20.4587 1.82031 16.3286 0.0497051 12.183 0.00231445C12.1489 0.00142382 12.1146 0.00133011 12.0803 0.000955105C12.0574 0.000861355 12.0344 6.42538e-05 12.0115 6.42538e-05C12.0076 6.42538e-05 12.0038 -7.62939e-05 11.9999 -7.62939e-05C11.9343 -7.62939e-05 11.869 0.00100169 11.8039 0.00278294C7.67122 0.0603454 3.54864 1.8302 0.271538 5.31485C-0.106834 5.71717 -0.0873811 6.35003 0.314897 6.72841C0.717222 7.10678 1.35008 7.08733 1.72845 6.68505C3.01422 5.31785 4.44137 4.24994 5.94759 3.48124C5.3453 4.51507 4.99997 5.71708 4.99997 7C4.99997 10.8663 8.13368 14 11.9999 14C15.8661 14 18.9999 10.8663 18.9999 6.99996C18.9999 5.71235 18.6519 4.50621 18.0455 3.4698C19.5557 4.23902 20.9848 5.30997 22.2697 6.68317C22.647 7.08644 23.2798 7.10749 23.6831 6.73019C24.0864 6.35285 24.1074 5.72003 23.7301 5.31672ZM16.9999 6.99996C16.9999 9.76169 14.7617 12 11.9999 12C9.23824 12 6.99997 9.76169 6.99997 6.99996C6.99997 4.28636 9.16099 2.07827 11.8561 2.00214C11.9076 2.00153 11.959 2.00008 12.0105 2.00008C12.0194 2.00008 12.0283 2.00036 12.0373 2.00041C12.0686 2.00046 12.0998 2.00135 12.1312 2.00167C14.8322 2.07124 16.9999 4.2821 16.9999 6.99996Z" fill="#8C8681"/>
<path d="M12 4.99995C12.5523 4.99995 13 4.55225 13 3.99997C13 3.44769 12.5523 2.99998 12 2.99998C9.79072 2.99998 8 4.7907 8 6.99996C8 9.20922 9.79072 10.9999 12 10.9999C14.2092 10.9999 16 9.20922 16 6.99996C16 6.44768 15.5523 5.99998 15 5.99998C14.4477 5.99998 14 6.44768 14 6.99996C14 8.10466 13.1047 8.99997 12 8.99997C10.8952 8.99997 9.99997 8.10466 9.99997 6.99996C9.99997 5.89526 10.8953 4.99995 12 4.99995Z" fill="#8C8681"/>
</svg>
