<svg width="24" height="24" viewBox="0 0 24 24" xmlns="http://www.w3.org/2000/svg">
<path d="M9.00004 10.3785H23.0001C23.5524 10.3785 24 10.9593 24 11.6758C24 12.3922 23.5523 12.973 23 12.973H8.25003H0.999988C0.447705 12.973 0 12.3922 0 11.6758C0 10.9593 0.447705 10.3785 0.999988 10.3785H9.00004Z" />
<path d="M9.00004 0H23.0001C23.5524 0 24 0.580804 24 1.29728C24 2.01375 23.5523 2.59456 23 2.59456H8.25003H0.999988C0.447705 2.59456 0 2.01375 0 1.29728C0 0.580804 0.447705 0 0.999988 0H9.00004Z" />
<path d="M9.00004 21.4054H23.0001C23.5524 21.4054 24 21.9862 24 22.7027C24 23.4191 23.5523 24 23 24H8.25003H0.999988C0.447705 24 0 23.4191 0 22.7027C0 21.9862 0.447705 21.4054 0.999988 21.4054H9.00004Z" />
</svg>
