<svg width="25" height="24" viewBox="0 0 25 24" fill="none" xmlns="http://www.w3.org/2000/svg">
<path d="M23.5001 2.00002H21.5V0.999984C21.5 0.447703 21.0523 0 20.5001 0H4.49999C3.94771 0 3.50001 0.447703 3.50001 0.999984V1.99997H1.49999C0.947704 2.00002 0.5 2.44772 0.5 3V21C0.5 21.5523 0.947704 22 1.49999 22H3.50001V23C3.50001 23.5523 3.94771 24 4.49999 24H20.5C21.0523 24 21.5 23.5523 21.5 23V22H23.5C24.0523 22 24.5 21.5523 24.5 21V3C24.5 2.44772 24.0523 2.00002 23.5001 2.00002ZM2.50002 20V3.99998H3.50001V20H2.50002V20ZM19.5 22H5.50003V21V3V2.00002H19.5001V3V21V22H19.5ZM22.5 20H21.5V3.99998H22.5V20Z" fill="black"/>
</svg>
