<svg width="24" height="24" viewBox="0 0 24 24" xmlns="http://www.w3.org/2000/svg">
<path d="M23.6961 22.2929L16.0329 14.6298C17.2707 13.0882 18.0117 11.1307 18.0117 9C18.0117 4.0297 13.982 0 9.01172 0C4.04142 0 0.0117188 4.0297 0.0117188 9C0.0117188 13.9703 4.04142 18 9.01172 18C11.1308 18 13.0785 17.2671 14.6162 16.0416L22.2818 23.7071C22.6723 24.0976 23.3055 24.0976 23.696 23.7071C24.0866 23.3166 24.0866 22.6834 23.6961 22.2929ZM2.01178 9C2.01178 5.13427 5.14608 2.00002 9.01177 2.00002C12.8775 2.00002 16.0118 5.13427 16.0118 9C16.0118 10.9282 15.2319 12.6743 13.9705 13.9403C13.9634 13.947 13.9559 13.953 13.9489 13.9599C13.9434 13.9654 13.9388 13.9714 13.9335 13.977C12.6689 15.2275 10.9306 16 9.01181 16C5.14608 16 2.01178 12.8657 2.01178 9Z" />
</svg>
