<svg width="24" height="24" viewBox="0 0 24 24" xmlns="http://www.w3.org/2000/svg">
<path d="M23.9834 7.62038C23.9768 7.52932 23.9694 7.45952 23.9627 7.41159C23.627 3.27456 20.8376 0 17.2174 0C15.1201 0 13.2035 1.07988 11.9485 2.83052C10.7229 1.0681 8.87926 0 6.79308 0C3.18525 0 0.402228 3.25238 0.0439009 7.4351C0.0370127 7.48384 0.0300776 7.54319 0.0237517 7.61299C-0.0374924 8.28875 0.0134428 9.18416 0.250125 10.2752C0.753011 12.5931 1.92897 14.7043 3.58758 16.3403L11.3112 23.7292C11.6874 24.0891 12.2503 24.0904 12.6279 23.7323L20.4082 16.3556C22.242 14.279 23.3318 12.411 23.764 10.2585C23.9808 9.17748 24.0313 8.28794 23.9834 7.62038ZM21.8108 9.79451C21.4709 11.4874 20.5666 13.0374 19.0296 14.7831L11.9745 21.4671L4.91901 14.7176C3.56569 13.3826 2.60392 11.6559 2.19593 9.77539C2.01069 8.92154 1.97349 8.26698 2.01341 7.82646C2.01693 7.78751 2.03183 7.66984 2.03183 7.66984C2.28899 4.52009 4.28652 2.17541 6.79308 2.17541C8.65912 2.17541 10.2467 3.4137 11.0183 5.4025C11.3622 6.28873 12.5164 6.28873 12.8602 5.4025C13.6163 3.45357 15.3165 2.17541 17.2174 2.17541C19.7241 2.17541 21.7215 4.52024 21.9787 7.67096C21.9855 7.73428 21.9874 7.75182 21.9901 7.78991C22.0232 8.25005 21.9848 8.92663 21.8108 9.79451Z"/>
</svg>
